HIERARCHY
ROOT Pelvis
{
	OFFSET 0.000000 0.000000 0.000000
	CHANNELS 6 Xposition Yposition Zposition Zrotation Yrotation Xrotation 
	JOINT Left_hip
	{
		OFFSET 0.067986 -0.089946 -0.007639
		CHANNELS 3 Zrotation Yrotation Xrotation
		JOINT Left_knee
		{
			OFFSET 0.036308 -0.388288 -0.004016
			CHANNELS 3 Zrotation Yrotation Xrotation
			JOINT Left_ankle
			{
				OFFSET -0.012264 -0.413250 -0.042878
				CHANNELS 3 Zrotation Yrotation Xrotation
				JOINT Left_foot
				{
					OFFSET 0.024043 -0.058563 0.118570
					CHANNELS 3 Zrotation Yrotation Xrotation
					End Site
					{
						OFFSET 0.000000 0.000000 0.000000
					}
				}
			}
		}
	}
	JOINT Right_hip
	{
		OFFSET -0.065648 -0.089374 -0.003858
		CHANNELS 3 Zrotation Yrotation Xrotation
		JOINT Right_knee
		{
			OFFSET -0.042132 -0.395021 -0.006361
			CHANNELS 3 Zrotation Yrotation Xrotation
			JOINT Right_ankle
			{
				OFFSET 0.014805 -0.413264 -0.041054
				CHANNELS 3 Zrotation Yrotation Xrotation
				JOINT Right_foot
				{
					OFFSET -0.021758 -0.049013 0.121832
					CHANNELS 3 Zrotation Yrotation Xrotation
					End Site
					{
						OFFSET 0.000000 0.000000 0.000000
					}
				}
			}
		}
	}
	JOINT Spine1
	{
		OFFSET -0.002755 0.104406 -0.022277
		CHANNELS 3 Zrotation Yrotation Xrotation
		JOINT Spine2
		{
			OFFSET 0.004136 0.129393 -0.002186
			CHANNELS 3 Zrotation Yrotation Xrotation
			JOINT Spine3
			{
				OFFSET 0.001906 0.049304 0.025578
				CHANNELS 3 Zrotation Yrotation Xrotation
				JOINT Neck
				{
					OFFSET -0.004620 0.210958 -0.044063
					CHANNELS 3 Zrotation Yrotation Xrotation
					JOINT Head
					{
						OFFSET 0.003833 0.067393 0.052435
						CHANNELS 3 Zrotation Yrotation Xrotation
						End Site
						{
							OFFSET 0.000000 0.000000 0.000000
						}
					}
				}
				JOINT Left_collar
				{
					OFFSET 0.070771 0.116689 -0.037192
					CHANNELS 3 Zrotation Yrotation Xrotation
					JOINT Left_shoulder
					{
						OFFSET 0.080652 0.031596 -0.005617
						CHANNELS 3 Zrotation Yrotation Xrotation
						JOINT Left_elbow
						{
							OFFSET 0.262654 -0.015020 -0.027939
							CHANNELS 3 Zrotation Yrotation Xrotation
							JOINT Left_wrist
							{
								OFFSET 0.250438 0.010062 -0.000990
								CHANNELS 3 Zrotation Yrotation Xrotation
								JOINT Left_palm
								{
									OFFSET 0.081198 -0.010037 -0.013706
									CHANNELS 3 Zrotation Yrotation Xrotation
									End Site
									{
										OFFSET 0.000000 0.000000 0.000000
									}
								}
							}
						}
					}
				}
				JOINT Right_collar
				{
					OFFSET -0.072972 0.115556 -0.040762
					CHANNELS 3 Zrotation Yrotation Xrotation
					JOINT Right_shoulder
					{
						OFFSET -0.082917 0.031841 -0.006673
						CHANNELS 3 Zrotation Yrotation Xrotation
						JOINT Right_elbow
						{
							OFFSET -0.252882 -0.013790 -0.020410
							CHANNELS 3 Zrotation Yrotation Xrotation
							JOINT Right_wrist
							{
								OFFSET -0.255570 0.009163 -0.005138
								CHANNELS 3 Zrotation Yrotation Xrotation
								JOINT Right_palm
								{
									OFFSET -0.080804 -0.007282 -0.010415
									CHANNELS 3 Zrotation Yrotation Xrotation
									End Site
									{
										OFFSET 0.000000 0.000000 0.000000
									}
								}
							}
						}
					}
				}
			}
		}
	}
}
MOTION
Frames: 8
Frame Time: 0.100000
0.000000 0.000000 0.000000 174.848378 24.024183 -12.461685 9.460778 5.720232 3.335339 -2.443472 -18.225409 -2.336440 -4.463788 14.471616 -5.856127 2.444967 -0.421421 -3.795632 -7.455299 -5.765615 2.949600 3.596427 11.451563 0.365133 5.350534 -13.231040 -7.605780 1.842686 3.566272 6.305362 0.733980 1.796898 0.175188 1.694239 -3.371941 2.874295 0.754557 1.072968 1.640378 -4.926222 0.138374 17.536187 4.017562 1.005397 -3.771297 -3.596445 7.354779 -9.122395 1.858168 -2.715461 -14.720974 2.686033 -4.601932 -6.844868 0.676167 -6.224261 25.424893 -6.399116 -7.793704 -8.265800 3.971087 -4.399532 -4.237801 -2.512385 -4.070798 -19.870092 -3.503927 13.135822 -2.702601 1.116289 6.994885 26.506938 11.165585 7.311385 -6.688276 
0.000016 0.000028 -0.000144 174.848770 24.004431 -12.440913 9.463646 5.720416 3.320211 -2.449897 -18.210689 -2.353258 -4.462843 14.479797 -5.853642 2.455537 -0.418469 -3.808497 -7.457962 -5.760592 2.929628 3.603666 11.469665 0.338817 5.383021 -13.246825 -7.598628 1.771927 3.584869 6.282022 0.731936 1.791033 0.207590 1.688459 -3.381880 2.789895 0.764914 1.063418 1.648264 -4.915933 0.070751 17.400568 4.073140 0.982194 -3.810753 -3.655196 7.324937 -9.162311 1.829133 -2.711501 -14.720534 2.684608 -4.572514 -6.906837 0.706411 -6.195439 25.463177 -6.417735 -7.816644 -8.266587 4.009744 -4.383755 -4.290956 -2.494411 -4.105054 -19.878468 -3.537940 13.184662 -2.796622 1.080161 6.972587 26.530092 11.183516 7.327771 -6.709230 
-0.000013 0.000048 -0.000150 174.843646 23.986165 -12.428104 9.467991 5.728500 3.329366 -2.439475 -18.190247 -2.394308 -4.456724 14.465307 -5.846040 2.434569 -0.400406 -3.816514 -7.456370 -5.754889 2.923837 3.600669 11.471119 0.307461 5.381441 -13.229500 -7.586887 1.780039 3.575359 6.286064 0.731945 1.793389 0.188334 1.702172 -3.379344 2.783693 0.776281 1.068371 1.606523 -4.885977 0.098009 17.323972 4.081782 0.984093 -3.845866 -3.676185 7.261073 -9.157717 1.776606 -2.744479 -14.689664 2.688042 -4.552539 -6.833968 0.699018 -6.211994 25.528567 -6.406573 -7.821917 -8.268641 4.044243 -4.335492 -4.277658 -2.445494 -4.089484 -19.859707 -3.588383 13.084365 -2.750301 1.068266 6.978635 26.634556 11.183706 7.340570 -6.721093 
-0.000083 0.000059 -0.000144 174.848581 23.997265 -12.459933 9.464184 5.717903 3.356704 -2.450713 -18.182604 -2.378686 -4.431511 14.437922 -5.856249 2.428213 -0.356109 -3.809941 -7.477074 -5.748257 2.953812 3.610988 11.451944 0.326971 5.345828 -13.191712 -7.587869 1.819304 3.512324 6.274710 0.730913 1.784373 0.177154 1.727393 -3.395711 2.818546 0.776480 1.049069 1.603747 -4.852590 0.054236 17.305161 4.063040 0.970436 -3.858617 -3.706900 7.249460 -9.148661 1.662874 -2.822195 -14.649541 2.725721 -4.597433 -6.887463 0.786188 -6.164304 25.427137 -6.434416 -7.818112 -8.258248 4.078352 -4.354470 -4.314164 -2.339781 -3.987833 -19.809057 -3.606488 13.246884 -2.737473 0.953163 6.941183 26.612764 11.217053 7.346431 -6.718587 
-0.000217 0.000070 -0.000242 174.877255 23.975711 -12.431717 9.430792 5.732664 3.356227 -2.446421 -18.168783 -2.408098 -4.466182 14.458249 -5.848010 2.464350 -0.395558 -3.806157 -7.509580 -5.760395 2.950477 3.601117 11.462555 0.286976 5.370342 -13.179649 -7.566471 1.792131 3.523857 6.251165 0.797581 1.774151 0.169167 1.706148 -3.397277 2.833845 0.771209 1.061365 1.595627 -4.890610 0.060005 17.246225 4.052332 1.028092 -3.979442 -3.714700 7.205198 -9.134891 1.646453 -2.734681 -14.647681 2.705556 -4.585282 -6.772001 0.698115 -6.196176 25.541135 -6.395685 -7.823562 -8.251275 4.003348 -4.313873 -4.274286 -2.476361 -4.075568 -19.863923 -3.506268 13.201411 -2.572854 1.168142 6.971520 26.782802 11.165254 7.353602 -6.749957 
-0.000245 0.000042 -0.000450 174.931090 23.901292 -12.419114 9.386274 5.756755 3.327730 -2.476907 -18.159304 -2.310458 -4.483133 14.530447 -5.863312 2.485122 -0.466111 -3.817468 -7.541864 -5.765702 2.907742 3.597510 11.543566 0.330902 5.419392 -13.201850 -7.566180 1.727669 3.576973 6.232179 0.874224 1.783683 0.246299 1.684469 -3.364829 2.830378 0.776172 1.100494 1.667822 -4.940577 0.036362 17.090354 4.047449 1.107778 -4.150077 -3.688774 7.276967 -9.122539 1.759229 -2.508376 -14.645793 2.751264 -4.785413 -6.678202 1.028508 -6.247814 25.531123 -6.425227 -7.882406 -8.331539 3.878344 -4.414115 -4.260316 -2.762545 -4.385318 -20.108998 -3.578845 13.505606 -2.989731 0.838026 7.058156 26.611996 11.248120 7.363883 -6.829411 
0.000093 0.000090 -0.000551 174.923422 23.926848 -12.427600 9.407188 5.740159 3.307023 -2.478751 -18.143915 -2.304138 -4.454366 14.485504 -5.859881 2.457709 -0.399512 -3.774612 -7.530533 -5.757577 2.904925 3.612315 11.503729 0.330340 5.388780 -13.168288 -7.581172 1.782126 3.501790 6.290435 0.814102 1.793446 0.234080 1.758401 -3.374552 2.910432 0.796546 1.081548 1.659602 -4.787590 0.010110 17.204059 4.129852 1.061224 -4.045150 -3.747152 7.467735 -9.132693 1.820873 -2.483492 -14.619618 2.805352 -4.836270 -6.665925 1.106654 -6.326370 25.513374 -6.406668 -7.847300 -8.321465 4.011330 -4.631643 -4.348529 -2.770185 -4.414715 -20.232595 -3.956243 13.678861 -3.524619 0.604168 7.156486 26.447401 11.277180 7.299942 -6.777764 
0.000781 0.000185 -0.000990 174.904871 23.950366 -12.495689 9.447519 5.704174 3.258820 -2.504174 -18.073896 -2.195488 -4.430606 14.370866 -5.861180 2.441311 -0.281378 -3.740843 -7.511523 -5.730356 2.894156 3.652574 11.388483 0.401611 5.409140 -13.070401 -7.628866 1.701319 3.431051 6.356225 0.729623 1.824810 0.295743 1.830661 -3.383527 3.132941 0.814348 1.050652 1.650790 -4.753302 -0.023985 17.388414 4.205553 0.813483 -4.030171 -3.918322 7.659207 -9.078969 1.632180 -2.454277 -14.585194 2.948353 -4.869589 -6.738631 0.694566 -6.394052 25.565932 -6.376882 -7.787815 -8.356274 4.337306 -4.812052 -4.384519 -2.410471 -4.582670 -20.226412 -4.478786 14.151419 -4.128893 0.899201 7.265880 26.244175 11.287000 7.191352 -6.700442 
